<?xml version="1.0" standalone="no"?>
<!DOCTYPE svg PUBLIC "-//W3C//DTD SVG 20010904//EN"
	"http://www.w3.org/TR/2001/REC-SVG-20010904/DTD/svg10.dtd">
<svg version="1.0" xmlns="http://www.w3.org/2000/svg"
	 width="650.000000pt" height="650.000000pt" viewBox="0 0 650.000000 650.000000"
	 preserveAspectRatio="xMidYMid meet">

	<g transform="translate(0.000000,650.000000) scale(0.100000,-0.100000)"
	   fill="currentColor" stroke="none">
		<path d="M2045 6154 c-328 -25 -608 -117 -909 -301 -539 -328 -923 -987 -1070
-1838 -51 -298 -60 -426 -60 -885 -1 -450 5 -559 50 -846 106 -693 395 -1266
765 -1521 372 -256 754 -255 884 4 27 52 30 68 30 148 0 78 -4 97 -27 141 -36
69 -95 117 -182 150 -191 73 -349 237 -407 426 -104 334 -96 766 20 1021 89
199 271 357 408 357 94 0 164 -43 243 -147 123 -163 263 -545 339 -929 60
-301 64 -353 70 -949 6 -589 5 -578 58 -613 25 -16 71 -17 588 -17 632 0 614
-2 634 73 7 23 11 245 11 613 0 636 0 639 63 720 17 23 52 53 76 66 l44 23
456 0 c500 0 508 -1 630 -61 86 -43 185 -142 233 -235 66 -125 68 -145 68
-652 0 -361 3 -459 14 -486 26 -62 15 -61 706 -61 579 0 627 1 657 18 69 37
64 -122 60 1838 -3 1774 -3 1774 -25 1886 -84 436 -224 762 -464 1082 -89 118
-265 300 -382 395 -306 248 -699 424 -1138 510 -230 46 -382 56 -825 56 l-408
0 55 -37 c179 -119 321 -281 424 -483 211 -412 239 -891 80 -1370 -155 -467
-477 -871 -875 -1096 -168 -95 -367 -164 -475 -164 -53 0 -53 0 -63 38 -20 73
-33 142 -29 158 2 11 37 27 108 50 514 167 941 611 1095 1140 86 294 89 612
10 889 -35 121 -129 312 -206 415 -175 237 -422 399 -694 457 -68 14 -517 26
-640 17z m-540 -1555 c86 -41 155 -147 155 -239 0 -86 -65 -191 -144 -232 -56
-30 -155 -31 -211 -1 -86 46 -144 138 -145 229 -1 188 185 318 345 243z"/>
	</g>
</svg>
