<?xml version="1.0" standalone="no"?>
<!DOCTYPE svg PUBLIC "-//W3C//DTD SVG 20010904//EN"
	"http://www.w3.org/TR/2001/REC-SVG-20010904/DTD/svg10.dtd">
<svg version="1.0" xmlns="http://www.w3.org/2000/svg"
	 width="725.000000pt" height="725.000000pt" viewBox="0 0 725.000000 725.000000"
	 preserveAspectRatio="xMidYMid meet">

	<g transform="translate(0.000000,725.000000) scale(0.100000,-0.100000)"
	   fill="currentColor" stroke="none">
		<path d="M2640 7189 c-444 -57 -873 -322 -1122 -693 -63 -95 -148 -262 -169
-334 -11 -39 -20 -48 -89 -88 -42 -24 -110 -69 -151 -99 -145 -108 -173 -138
-854 -951 -130 -154 -173 -219 -211 -313 -90 -222 -29 -480 145 -617 111 -87
222 -124 372 -125 l97 0 6 -42 c11 -65 68 -206 109 -269 51 -76 150 -166 222
-203 50 -25 72 -30 130 -30 58 0 76 4 104 24 58 42 64 71 41 208 -21 124 -40
300 -40 362 l0 37 228 51 c125 28 230 48 234 44 3 -3 90 -285 192 -627 226
-757 243 -804 377 -1004 125 -187 251 -290 612 -502 78 -46 94 -82 138 -305
21 -109 60 -306 86 -438 l48 -240 5 -405 c5 -393 6 -406 27 -446 26 -48 82
-101 121 -111 15 -5 99 -8 187 -8 183 1 207 8 274 80 73 79 71 51 71 939 0
733 1 794 18 825 9 19 29 43 44 54 26 19 45 20 800 18 l773 -2 35 -24 c97 -66
628 -505 647 -534 39 -58 41 -37 -96 -799 -68 -375 -68 -395 -8 -474 57 -74
87 -83 282 -83 155 0 173 2 210 22 22 11 52 34 66 50 58 62 51 33 235 1018
121 646 121 664 -3 924 -66 139 -98 232 -113 325 -12 79 -9 126 25 311 67 364
74 648 20 860 -4 16 11 30 81 75 185 118 317 311 376 547 17 68 22 120 22 228
1 172 -17 262 -79 391 -72 149 -168 226 -244 194 -40 -16 -51 -36 -90 -157
-18 -56 -53 -137 -78 -180 -80 -136 -253 -289 -410 -362 l-51 -24 -84 60
c-109 79 -174 115 -286 158 -222 86 -328 94 -1142 96 -333 0 -771 4 -975 8
-363 8 -371 8 -450 34 -185 61 -334 180 -530 422 -83 103 -209 284 -203 291 3
2 39 13 81 23 183 47 353 142 449 252 64 71 149 209 178 287 24 64 22 113 -7
144 -74 82 -382 118 -584 70 -120 -29 -197 -57 -328 -118 -62 -30 -117 -52
-120 -49 -4 2 -16 32 -26 66 l-19 62 38 73 c43 84 145 199 239 270 129 96 350
184 569 225 144 26 388 36 537 20 108 -11 115 -11 158 10 35 17 50 32 65 67
43 96 -6 162 -188 254 -175 89 -351 144 -557 173 -110 16 -360 18 -467 4z
m-1124 -1759 c32 -12 83 -59 100 -92 20 -39 21 -126 1 -163 -34 -67 -112 -115
-185 -115 -53 0 -132 42 -161 86 -47 68 -39 173 18 238 48 55 147 75 227 46z"/>
		<path d="M2261 1958 c-6 -29 -79 -395 -162 -813 -84 -418 -157 -790 -162 -827
-12 -75 -2 -122 35 -178 41 -60 72 -68 273 -72 180 -3 180 -3 226 24 87 51 87
52 219 624 66 285 120 535 120 554 0 30 -85 439 -92 445 -55 40 -433 295 -439
295 -4 0 -12 -24 -18 -52z"/>
		<path d="M5081 1683 c-6 -21 -26 -103 -46 -183 -60 -239 -226 -800 -315 -1065
-59 -176 -52 -260 30 -328 48 -40 98 -49 259 -45 243 6 263 24 388 371 147
408 303 860 303 877 0 13 -77 81 -221 197 -122 98 -233 186 -248 195 -17 12
-46 18 -83 18 l-57 0 -10 -37z"/>
	</g>
</svg>
