<?xml version="1.0" standalone="no"?>
<!DOCTYPE svg PUBLIC "-//W3C//DTD SVG 20010904//EN"
	"http://www.w3.org/TR/2001/REC-SVG-20010904/DTD/svg10.dtd">
<svg version="1.0" xmlns="http://www.w3.org/2000/svg"
	 width="776.000000pt" height="776.000000pt" viewBox="0 0 776.000000 776.000000"
	 preserveAspectRatio="xMidYMid meet">

	<g transform="translate(0.000000,776.000000) scale(0.100000,-0.100000)"
	   fill="currentColor" stroke="none">
		<path d="M3590 6949 c-128 -14 -372 -57 -485 -85 -406 -103 -710 -254 -1085
-538 -133 -101 -123 -100 -332 -57 -415 86 -615 97 -897 50 -324 -54 -703
-253 -772 -404 -38 -84 -14 -196 53 -250 19 -15 82 -46 141 -69 176 -70 274
-147 402 -318 82 -108 154 -243 162 -304 4 -33 -2 -54 -36 -121 -207 -413
-407 -1025 -521 -1592 -107 -539 -151 -1032 -149 -1700 1 -536 8 -599 78 -674
59 -65 72 -67 379 -67 252 0 282 2 301 18 14 10 47 86 90 202 109 297 165 418
257 556 58 88 102 133 163 163 l38 20 54 -25 c67 -31 159 -54 220 -54 147 0
384 72 624 190 270 132 553 328 1293 894 238 182 486 368 550 413 411 288 826
436 1374 488 130 12 267 15 625 13 968 -6 1105 -2 1297 38 38 8 71 12 73 10 9
-9 -65 -112 -110 -154 -26 -23 -79 -63 -118 -88 -173 -113 -359 -175 -904
-304 -121 -29 -287 -72 -370 -97 -909 -270 -1621 -869 -2112 -1778 -167 -310
-178 -334 -178 -405 l0 -65 40 -20 c49 -24 220 -28 304 -6 91 23 116 58 185
256 349 1008 843 1502 1826 1823 174 57 314 93 570 147 457 95 700 204 896
399 155 155 226 307 240 511 8 116 -6 190 -55 290 -101 204 -243 299 -756 505
-263 105 -411 168 -441 187 -16 10 -38 63 -83 201 -139 424 -309 702 -615
1007 -435 433 -928 678 -1561 777 -149 23 -514 33 -655 17z m801 -1695 c184
-55 300 -222 286 -411 -12 -164 -117 -296 -276 -348 -82 -27 -217 -18 -296 20
-76 37 -153 113 -191 190 -26 55 -29 69 -29 165 0 93 3 112 27 162 85 182 291
278 479 222z"/>
	</g>
</svg>
